<svg width="27" height="27" viewBox="0 0 27 27" fill="none" xmlns="http://www.w3.org/2000/svg">
<path d="M11.1222 21.5555H1" stroke="#1758BA" stroke-width="1.5" stroke-linecap="round" stroke-linejoin="round"/>
<path d="M17.4756 21.5576C17.4756 24.7475 18.5548 25.8057 21.7464 25.8057C24.9381 25.8057 26.002 24.7475 26.002 21.5576C26.002 18.3676 24.9381 17.3246 21.7464 17.3246C18.5548 17.3246 17.4756 18.3828 17.4756 21.5576Z" stroke="#2CDFC9" stroke-width="1.5" stroke-linecap="round" stroke-linejoin="round"/>
<path d="M15.8784 5.23096H26.0006" stroke="#1758BA" stroke-width="1.5" stroke-linecap="round" stroke-linejoin="round"/>
<path d="M9.52639 5.23298C9.52639 2.12041 8.44722 1 5.25556 1C2.06389 1 1 2.05824 1 5.23298C1 8.40771 2.06389 9.46872 5.25556 9.46872C8.44722 9.46872 9.52639 8.40771 9.52639 5.23298Z" stroke="#2CDFC9" stroke-width="1.5" stroke-linecap="round" stroke-linejoin="round"/>
</svg>
