<svg width="24" height="24" viewBox="0 0 24 24" fill="none" xmlns="http://www.w3.org/2000/svg">
<path d="M12.9046 1.03401L12.906 1.03501L22.5709 7.75367C22.5713 7.75393 22.5716 7.75419 22.572 7.75445C22.9984 8.05375 23.2513 8.54305 23.2513 9.05573V21.6712C23.2513 22.5331 22.5351 23.25 21.6679 23.25H17.6676C16.0537 23.25 14.7508 21.9476 14.7508 20.3405V15.6828C14.7508 15.0809 14.2669 14.6002 13.6674 14.6002H10.3339C9.73443 14.6002 9.25055 15.0809 9.25055 15.6828V20.3405C9.25055 21.9476 7.94766 23.25 6.33368 23.25H2.33346C1.46619 23.25 0.75 22.5331 0.75 21.6712V9.05573C0.75 8.54061 1.00445 8.05653 1.42157 7.7731L1.4216 7.77314L1.42872 7.76818L11.0959 1.03461L11.0968 1.03401C11.6388 0.655329 12.3625 0.655329 12.9046 1.03401Z" stroke="black" stroke-width="1.5"/>
</svg>
